{
  "accessors": [
    {
      "bufferView": 0,
      "byteOffset": 0,
      "count": 384,
      "componentType": 5126,
      "type": "VEC3",
      "min": [
        0.0,
        -0.5049999952316284,
        -0.15000000596046448
      ],
      "max": [
        0.4000000059604645,
        0.800000011920929,
        0.15000000596046448
      ]
    },
    {
      "bufferView": 0,
      "byteOffset": 12,
      "count": 384,
      "componentType": 5126,
      "type": "VEC3"
    },
    {
      "bufferView": 0,
      "byteOffset": 24,
      "count": 384,
      "componentType": 5126,
      "type": "VEC2"
    },
    {
      "bufferView": 0,
      "byteOffset": 32,
      "count": 384,
      "componentType": 5126,
      "type": "VEC3"
    }
  ],
  "asset": {
    "version": "2.0"
  },
  "buffers": [
    {
      "byteLength": 16896,
      "uri": "data:application/octet-stream;base64,"
    }
  ],
  "bufferViews": [
    {
      "buffer": 0,
      "byteLength": 16896,
      "byteStride": 44,
      "target": 34962
    }
  ],
  "meshes": [
    {
      "name": "enemy_arm_mesh",
      "primitives": [
        {
          "attributes": {
            "POSITION": 0,
            "NORMAL": 3,
            "COLOR_0": 1,
            "TEXCOORD_0": 2
          }
        }
      ]
    }
  ],
  "nodes": [
    {
      "mesh": 0
    }
  ],
  "scenes": [
    {
      "nodes": [
        0
      ]
    }
  ]
}